<?xml version="1.0" encoding="UTF-8"?><svg version="1.1" viewBox="0 0 640 512" xmlns="http://www.w3.org/2000/svg" xmlns:xlink="http://www.w3.org/1999/xlink"><path d="M608 0h-448c-17.67 0-32 13.13-32 29.33v98.67h128v-96h256v288h-32v32h128c17.67 0 32-13.13 32-29.33v-293.34c0-16.2-14.33-29.33-32-29.33Zm-384 96h-64v-64h64Zm384 224h-64v-64h64Zm0-96h-64v-96h64Zm0-128h-64v-64h64Zm-192 64h-384 -1.39876e-06c-17.6731 7.72516e-07-32 14.3269-32 32 0 0 0 0 0 0v288l3.41061e-13 4.83187e-06c2.66857e-06 17.6731 14.3269 32 32 32h384 -1.39876e-06c17.6731 7.72516e-07 32-14.3269 32-32v-288 0c0-17.6731-14.3269-32-32-32Zm0 320h-384v-24l81.69-61.26 80 40 126.84-95.14 95.47 63.63Zm0-115.23l-96.53-64.36 -129.16 96.86 -80-40 -78.31 58.73v-224h384Zm-304-44.77l-2.09815e-06-5.68434e-14c26.5097 1.15877e-06 48-21.4903 48-48 1.15877e-06-26.5097-21.4903-48-48-48 -26.5097-1.15877e-06-48 21.4903-48 48l5.40012e-13 7.2478e-06c4.00285e-06 26.5097 21.4903 48 48 48Zm0-64h-6.99382e-07c8.83656-3.86258e-07 16 7.16344 16 16 3.86258e-07 8.83656-7.16344 16-16 16 -8.83656 3.86258e-07-16-7.16344-16-16l1.84741e-13 2.41593e-06c-1.33428e-06-8.83656 7.16344-16 16-16Z" fill="#EBEBEB"></path></svg>