<svg width="128" height="128" viewBox="0 0 128 128" fill="none" xmlns="http://www.w3.org/2000/svg">
<path d="M83.2 80H92.8C94.4 80 96 78.4 96 76.8V43.2C96 41.6 94.4 40 92.8 40H83.2C81.6 40 80 41.6 80 43.2V76.8C80 78.4 81.6 80 83.2 80ZM107.2 80H116.8C118.4 80 120 78.4 120 76.8V19.2C120 17.6 118.4 16 116.8 16H107.2C105.6 16 104 17.6 104 19.2V76.8C104 78.4 105.6 80 107.2 80ZM35.2 80H44.8C46.4 80 48 78.4 48 76.8V59.2C48 57.6 46.4 56 44.8 56H35.2C33.6 56 32 57.6 32 59.2V76.8C32 78.4 33.6 80 35.2 80ZM59.2 80H68.8C70.4 80 72 78.4 72 76.8V27.2C72 25.6 70.4 24 68.8 24H59.2C57.6 24 56 25.6 56 27.2V76.8C56 78.4 57.6 80 59.2 80V80ZM124 96H16V20C16 17.79 14.21 16 12 16H4C1.79 16 0 17.79 0 20V104C0 108.418 3.5825 112 8 112H124C126.21 112 128 110.21 128 108V100C128 97.79 126.21 96 124 96Z" fill="url(#paint0_linear)"/>
<defs>
<linearGradient id="paint0_linear" x1="64" y1="16" x2="64" y2="112" gradientUnits="userSpaceOnUse">
<stop stop-color="#F7A248"/>
<stop offset="0.765625" stop-color="#EC4C47"/>
</linearGradient>
</defs>
</svg>
