<svg width="362" height="70" viewBox="0 0 362 70" fill="none" xmlns="http://www.w3.org/2000/svg">
<path fill-rule="evenodd" clip-rule="evenodd" d="M42.9787 52.7843L49.8806 67.6665L65.8182 67.6481L32.7722 0.00012207L0 67.6665H15.9187L22.8112 52.7843H42.9787ZM26.8901 42.2202L32.4229 30.1613L38.56 42.2202H26.8901Z" fill="white"/>
<path d="M166.896 67.6665V0.00012207H181V67.6665H166.896Z" fill="white"/>
<path d="M346.791 67.6665V32.5039L328.179 51.9988L309.012 32.3383V67.6665H293.831V0.248523L328.39 34.4175L362 0.00012207V67.6665H346.791Z" fill="white"/>
<path d="M75.2209 9.15835L84.4631 0.00012207L108.13 23.4523V32.6667H99.2372L75.2209 9.15835Z" fill="white"/>
<path d="M145.74 9.15835L136.498 0.00012207L112.831 23.4523V32.6667H121.723L145.74 9.15835Z" fill="white"/>
<path d="M84.4631 70L108.13 46.5479V37.3335H99.2372L75.2209 60.8418L84.4631 70Z" fill="white"/>
<path d="M145.74 60.8418L136.498 70L112.831 46.5479V37.3335H121.723L145.74 60.8418Z" fill="white"/>
<path fill-rule="evenodd" clip-rule="evenodd" d="M204.544 34.008C204.452 15.3601 219.586 0.156131 238.377 0.0187878V0.000334865C247.453 -0.03153 256.17 3.51644 262.609 9.86347C269.049 16.2105 272.683 24.8365 272.713 33.8431C272.712 52.4912 257.503 67.621 238.711 67.6664C219.92 67.7119 204.636 52.6559 204.544 34.008ZM259.4 33.9591C259.46 22.3707 250.056 12.9208 238.379 12.8343C226.645 12.7986 217.097 22.1986 217.041 33.843C217.036 45.4316 226.484 54.8375 238.162 54.8695C249.84 54.9016 259.34 45.5476 259.4 33.9591Z" fill="white"/>
</svg>
