<svg width="1001" height="1001" fill="none" xmlns="http://www.w3.org/2000/svg"><g opacity=".3" fill-rule="evenodd" clip-rule="evenodd"><path d="M352.027 456.414c3.472-12.757-4.121-25.894-16.96-29.344-12.838-3.45-26.06 4.095-29.532 16.851-3.472 12.756 4.121 25.894 16.959 29.344 12.839 3.45 26.061-4.095 29.533-16.851z" fill="#CE5AFF"/><path d="M569.739 331.571c3.472-12.756-4.122-25.894-16.96-29.344-12.839-3.45-26.061 4.095-29.533 16.851-3.472 12.757 4.121 25.894 16.96 29.344 12.838 3.45 26.061-4.095 29.533-16.851z" fill="#00BCF7"/><path d="M650.169 536.525c-3.472 12.756 4.121 25.894 16.959 29.343 12.839 3.45 26.061-4.094 29.533-16.851 3.472-12.756-4.121-25.894-16.959-29.343-12.839-3.45-26.061 4.094-29.533 16.851z" fill="#FF4676"/><path d="M430.044 661.507c-3.472 12.756 4.121 25.894 16.959 29.344 12.839 3.45 26.061-4.095 29.533-16.851 3.472-12.757-4.121-25.894-16.959-29.344-12.839-3.45-26.061 4.095-29.533 16.851z" fill="#E5F35A"/><path d="M392.312 388.343c9.497-9.392 9.533-24.656.08-34.092s-24.815-9.471-34.312-.079c-9.497 9.393-9.533 24.656-.08 34.092s24.815 9.472 34.312.079z" fill="#FF9535"/><path d="M643.647 388.07c9.497-9.393 9.533-24.656.08-34.092s-24.815-9.472-34.312-.079c-9.497 9.392-9.532 24.656-.079 34.092s24.815 9.471 34.311.079z" fill="#00FFAF"/><path d="M609.686 605.329c-9.497 9.393-9.533 24.657-.08 34.093 9.453 9.436 24.815 9.471 34.312.079 9.497-9.393 9.533-24.656.08-34.092-9.453-9.437-24.815-9.472-34.312-.08z" fill="#FF4846"/><path d="M356.639 603.896c-9.497 9.392-9.533 24.656-.08 34.092s24.815 9.472 34.312.079c9.497-9.392 9.532-24.656.079-34.092s-24.814-9.472-34.311-.079z" fill="#00BCF7"/><path d="M461.322 348.942c12.951-3.416 20.663-16.617 17.225-29.485-3.438-12.869-16.724-20.531-29.675-17.115-12.951 3.416-20.663 16.617-17.225 29.485 3.438 12.868 16.724 20.531 29.675 17.115z" fill="#E5F35A"/><path d="M679.122 473.57c12.951-3.416 20.663-16.617 17.225-29.485-3.438-12.869-16.724-20.531-29.675-17.115-12.951 3.416-20.663 16.617-17.225 29.485 3.438 12.868 16.724 20.531 29.675 17.115z" fill="#CE5AFF"/><path d="M540.382 644.849c-12.951 3.416-20.663 16.617-17.225 29.485 3.438 12.869 16.724 20.531 29.675 17.115 12.951-3.416 20.663-16.617 17.225-29.485-3.438-12.868-16.724-20.531-29.675-17.115z" fill="#FF9535"/><path d="M321.959 517.894c-12.951 3.416-20.663 16.617-17.225 29.485 3.439 12.869 16.724 20.531 29.675 17.115 12.952-3.416 20.663-16.617 17.225-29.485-3.438-12.868-16.724-20.531-29.675-17.115z" fill="#00FFAF"/></g><g opacity=".2" fill-rule="evenodd" clip-rule="evenodd"><path d="M542.927 262.76c20.166 3.533 39.397-9.846 42.953-29.883 3.555-20.037-9.91-39.145-30.076-42.678-20.166-3.533-39.397 9.846-42.953 29.883-3.556 20.038 9.91 39.145 30.076 42.678z" fill="#CE5AFF"/><path d="M767.056 578.927c20.166 3.533 39.397-9.846 42.952-29.883 3.556-20.037-9.909-39.145-30.075-42.678-20.167-3.533-39.397 9.846-42.953 29.883-3.556 20.038 9.91 39.145 30.076 42.678z" fill="#00BCF7"/><path d="M459.823 731.04c-20.166-3.533-39.397 9.846-42.953 29.883-3.555 20.037 9.91 39.145 30.076 42.678 20.166 3.533 39.397-9.846 42.953-29.884 3.556-20.037-9.91-39.144-30.076-42.677z" fill="#FF4676"/><path d="M235.606 411.001c-20.166-3.534-39.397 9.846-42.952 29.883-3.556 20.037 9.909 39.145 30.075 42.678 20.167 3.533 39.397-9.846 42.953-29.884 3.556-20.037-9.909-39.144-30.076-42.677z" fill="#E5F35A"/><path d="M654.215 315.406c15.882 13.241 39.559 11.183 52.884-4.597 13.326-15.779 11.255-39.305-4.626-52.546-15.881-13.24-39.558-11.182-52.884 4.598-13.326 15.779-11.255 39.305 4.626 52.545z" fill="#FF9535"/><path d="M689.428 700.189c15.881 13.241 39.558 11.183 52.884-4.597 13.326-15.779 11.255-39.305-4.626-52.545-15.882-13.241-39.559-11.183-52.885 4.597-13.325 15.779-11.254 39.305 4.627 52.545z" fill="#00FFAF"/><path d="M347.781 678.262c-15.881-13.241-39.558-11.183-52.884 4.597-13.326 15.779-11.254 39.305 4.627 52.546 15.881 13.24 39.558 11.182 52.884-4.598 13.326-15.779 11.254-39.305-4.627-52.545z" fill="#FF4846"/><path d="M314.981 290.624c-15.881-13.241-39.558-11.182-52.884 4.597-13.326 15.78-11.254 39.305 4.627 52.546s39.558 11.182 52.884-4.597c13.326-15.78 11.255-39.305-4.627-52.546z" fill="#00BCF7"/><path d="M724.874 415.616c7.09 19.356 28.631 29.337 48.112 22.291 19.481-7.045 29.526-28.448 22.435-47.804-7.09-19.357-28.631-29.337-48.112-22.292-19.481 7.045-29.526 28.448-22.435 47.805z" fill="#E5F35A"/><path d="M561.739 766.338c7.091 19.357 28.631 29.337 48.113 22.292 19.481-7.045 29.525-28.448 22.435-47.805-7.091-19.356-28.631-29.336-48.113-22.291-19.481 7.045-29.525 28.448-22.435 47.804z" fill="#CE5AFF"/><path d="M276.896 577.623c-7.09-19.357-28.631-29.337-48.112-22.292-19.481 7.045-29.526 28.448-22.435 47.805 7.09 19.356 28.631 29.336 48.112 22.291 19.481-7.045 29.526-28.448 22.435-47.804z" fill="#FF9535"/><path d="M443.559 225.622c-7.091-19.357-28.632-29.337-48.113-22.292-19.481 7.045-29.526 28.448-22.435 47.805 7.091 19.356 28.631 29.336 48.112 22.291 19.482-7.045 29.526-28.448 22.436-47.804z" fill="#00FFAF"/></g><g opacity=".025" fill-rule="evenodd" clip-rule="evenodd"><path d="M157.174 533.99c-3.247-29.23-29.728-50.311-59.146-47.084-29.419 3.226-50.635 29.537-47.388 58.767 3.247 29.231 29.728 50.311 59.147 47.085 29.418-3.227 50.634-29.538 47.387-58.768z" fill="#CE5AFF"/><path d="M507.698 96.805c-3.248-29.23-29.728-50.31-59.147-47.084-29.418 3.226-50.635 29.538-47.387 58.768 3.247 29.23 29.727 50.311 59.146 47.084 29.418-3.226 50.635-29.537 47.388-58.768z" fill="#00BCF7"/><path d="M844.702 458.59c3.247 29.23 29.728 50.311 59.146 47.085 29.419-3.227 50.635-29.538 47.388-58.768-3.247-29.231-29.728-50.311-59.147-47.085-29.418 3.227-50.634 29.538-47.387 58.768z" fill="#FF4676"/><path d="M488.809 897.469c3.247 29.23 29.728 50.311 59.147 47.084 29.418-3.226 50.634-29.537 47.387-58.767-3.247-29.231-29.728-50.311-59.146-47.085-29.419 3.226-50.635 29.538-47.388 58.768z" fill="#E5F35A"/><path d="M185.536 359.234c12.045-27.262-.433-59.063-27.87-71.031-27.437-11.968-59.443.43-71.488 27.692-12.045 27.261.433 59.063 27.87 71.03 27.437 11.968 59.444-.43 71.488-27.691z" fill="#FF9535"/><path d="M708.491 154.618c12.045-27.261-.433-59.063-27.87-71.03-27.437-11.968-59.443.43-71.488 27.691-12.045 27.262.433 59.063 27.87 71.031 27.437 11.968 59.443-.43 71.488-27.692z" fill="#00FFAF"/><path d="M816.462 634.436c-12.045 27.262.433 59.063 27.87 71.031 27.437 11.968 59.443-.43 71.488-27.692 12.045-27.261-.433-59.063-27.87-71.03-27.437-11.968-59.444.43-71.488 27.691z" fill="#FF4846"/><path d="M288.54 836.889c-12.045 27.262.433 59.063 27.87 71.031 27.437 11.968 59.444-.43 71.488-27.692 12.045-27.261-.433-59.063-27.87-71.03-27.437-11.968-59.443.43-71.488 27.691z" fill="#00BCF7"/><path d="M296.789 221.192c24.149-17.626 29.346-51.366 11.608-75.361-17.739-23.995-51.696-29.159-75.846-11.533-24.15 17.625-29.347 51.365-11.608 75.36 17.739 23.995 51.696 29.159 75.846 11.534z" fill="#E5F35A"/><path d="M852.649 303.791c24.15-17.625 29.347-51.365 11.608-75.36-17.739-23.995-51.696-29.159-75.846-11.534-24.149 17.625-29.346 51.365-11.608 75.361 17.739 23.995 51.696 29.158 75.846 11.533z" fill="#CE5AFF"/><path d="M704.698 772.969c-24.149 17.625-29.347 51.365-11.608 75.36 17.739 23.995 51.696 29.159 75.846 11.534 24.149-17.626 29.346-51.366 11.608-75.361-17.739-23.995-51.696-29.159-75.846-11.533z" fill="#FF9535"/><path d="M145.627 686.023c-24.149 17.626-29.346 51.366-11.608 75.361 17.739 23.995 51.696 29.158 75.846 11.533 24.15-17.625 29.347-51.365 11.608-75.36-17.739-23.995-51.696-29.159-75.846-11.534z" fill="#00FFAF"/></g><g opacity=".6" fill-rule="evenodd" clip-rule="evenodd"><path d="M501 400.365c8.444 0 15.289-6.801 15.289-15.192 0-8.39-6.845-15.192-15.289-15.192-8.445 0-15.29 6.802-15.29 15.192 0 8.391 6.845 15.192 15.29 15.192z" fill="#CE5AFF"/><path d="M613.379 511.268c8.444 0 15.29-6.802 15.29-15.192 0-8.391-6.846-15.192-15.29-15.192-8.444 0-15.29 6.801-15.29 15.192 0 8.39 6.846 15.192 15.29 15.192z" fill="#00BCF7"/><path d="M501 593.302c-8.444 0-15.29 6.801-15.29 15.192 0 8.39 6.846 15.192 15.29 15.192 8.444 0 15.29-6.802 15.29-15.192 0-8.391-6.846-15.192-15.29-15.192z" fill="#FF4676"/><path d="M388.621 480.882c-8.444 0-15.29 6.802-15.29 15.192s6.846 15.192 15.29 15.192c8.444 0 15.29-6.802 15.29-15.192s-6.846-15.192-15.29-15.192z" fill="#E5F35A"/><path d="M549.545 413.29c7.313 4.195 16.664 1.705 20.886-5.561 4.222-7.266 1.716-16.557-5.596-20.752-7.313-4.195-16.664-1.706-20.887 5.56-4.222 7.267-1.716 16.558 5.597 20.753z" fill="#FF9535"/><path d="M591.06 565.161c7.313 4.195 16.664 1.706 20.887-5.561 4.222-7.266 1.716-16.557-5.597-20.752-7.313-4.195-16.664-1.706-20.886 5.56-4.222 7.267-1.716 16.558 5.596 20.753z" fill="#00FFAF"/><path d="M452.456 580.378c-7.313-4.195-16.664-1.705-20.886 5.561-4.223 7.266-1.717 16.557 5.596 20.752 7.313 4.195 16.664 1.706 20.886-5.56 4.222-7.267 1.717-16.558-5.596-20.753z" fill="#FF4846"/><path d="M411.704 427.19c-7.313-4.196-16.664-1.706-20.886 5.56-4.223 7.266-1.717 16.558 5.596 20.753 7.313 4.195 16.664 1.705 20.886-5.561 4.222-7.266 1.717-16.557-5.596-20.752z" fill="#00BCF7"/><path d="M585.022 448.519c4.222 7.266 13.573 9.756 20.886 5.561 7.313-4.195 9.818-13.486 5.596-20.753-4.222-7.266-13.573-9.755-20.886-5.56-7.313 4.195-9.818 13.486-5.596 20.752z" fill="#E5F35A"/><path d="M544.55 600.673c4.222 7.266 13.573 9.755 20.886 5.56 7.313-4.195 9.819-13.486 5.597-20.752-4.223-7.266-13.574-9.756-20.887-5.561-7.313 4.195-9.818 13.486-5.596 20.753z" fill="#CE5AFF"/><path d="M416.857 544.988c-4.222-7.267-13.573-9.756-20.886-5.561-7.313 4.195-9.818 13.486-5.596 20.752 4.222 7.267 13.573 9.756 20.886 5.561 7.313-4.195 9.818-13.486 5.596-20.752z" fill="#FF9535"/><path d="M458.653 392.078c-4.222-7.266-13.573-9.755-20.886-5.56-7.313 4.195-9.819 13.486-5.596 20.752 4.222 7.266 13.573 9.756 20.886 5.561 7.313-4.195 9.818-13.486 5.596-20.753z" fill="#00FFAF"/></g><path fill-rule="evenodd" clip-rule="evenodd" d="M500.642 562.944c36.944 0 66.893-29.757 66.893-66.464 0-36.707-29.949-66.464-66.893-66.464-36.943 0-66.892 29.757-66.892 66.464 0 36.707 29.949 66.464 66.892 66.464z" fill="#FF4676"/><path d="M475.034 478.196l6.462-6.4 16.549 16.39v6.44h-6.218l-16.793-16.43zM525.164 478.195l-6.462-6.401-16.549 16.39v6.44h6.218l16.793-16.429zM481.495 520.717l16.548-16.391v-6.439h-6.218l-16.793 16.429 6.463 6.401zM525.164 514.316l-6.462 6.401-16.549-16.391v-6.439h6.218l16.793 16.429z" fill="#fff"/><ellipse cx="500.999" cy="507.711" rx="495.493" ry="492.323" fill="url(#paint0_radial)"/><defs><radialGradient id="paint0_radial" cx="0" cy="0" r="1" gradientUnits="userSpaceOnUse" gradientTransform="matrix(-495.493 0 0 -492.323 500.999 507.711)"><stop offset=".125" stop-color="#364153" stop-opacity="0"/><stop offset=".865" stop-color="#364153"/></radialGradient></defs></svg>