<svg width="128" height="90" viewBox="0 0 128 90" fill="none" xmlns="http://www.w3.org/2000/svg">
<path d="M51.5958 47.7209L12.7272 86.5895C10.8526 88.4641 7.81341 88.4641 5.93901 86.5895L1.40541 82.0561C-0.465985 80.1847 -0.469585 77.1517 1.39741 75.2759L32.2018 44.3267L1.39761 13.3777C-0.469385 11.5019 -0.465784 8.46895 1.40561 6.59755L5.93901 2.06415C7.81361 0.189553 10.8528 0.189553 12.7272 2.06415L51.5958 40.9327C53.4704 42.8071 53.4704 45.8463 51.5958 47.7209ZM128 84.3267V77.9267C128 75.2757 125.851 73.1267 123.2 73.1267H62.3996C59.7486 73.1267 57.5996 75.2757 57.5996 77.9267V84.3267C57.5996 86.9777 59.7486 89.1267 62.3996 89.1267H123.2C125.851 89.1267 128 86.9777 128 84.3267Z" fill="url(#paint0_linear)"/>
<defs>
<linearGradient id="paint0_linear" x1="63.9995" y1="0.658203" x2="63.9995" y2="89.1267" gradientUnits="userSpaceOnUse">
<stop stop-color="#F7A248"/>
<stop offset="0.765625" stop-color="#EC4C47"/>
</linearGradient>
</defs>
</svg>
