<svg width="128" height="112" viewBox="0 0 128 112" fill="none" xmlns="http://www.w3.org/2000/svg">
<path d="M116 0H12C5.3725 0 0 5.3725 0 12V100C0 106.628 5.3725 112 12 112H116C122.628 112 128 106.628 128 100V12C128 5.3725 122.628 0 116 0ZM56 96H16V32H56V96ZM112 96H72V32H112V96Z" fill="black"/>
<path d="M116 0H12C5.3725 0 0 5.3725 0 12V100C0 106.628 5.3725 112 12 112H116C122.628 112 128 106.628 128 100V12C128 5.3725 122.628 0 116 0ZM56 96H16V32H56V96ZM112 96H72V32H112V96Z" fill="url(#paint0_linear)"/>
<defs>
<linearGradient id="paint0_linear" x1="64" y1="0" x2="64" y2="112" gradientUnits="userSpaceOnUse">
<stop stop-color="#00BCF7"/>
<stop offset="0.729167" stop-color="#326CE5"/>
</linearGradient>
</defs>
</svg>
