<svg width="128" height="100" viewBox="0 0 128 100" fill="none" xmlns="http://www.w3.org/2000/svg">
<path d="M46.2224 0.111328H35.5557C29.8978 0.111328 24.4716 2.35894 20.4708 6.35972C16.47 10.3605 14.2224 15.7867 14.2224 21.4447V29.7735C14.2218 31.6612 13.4721 33.4715 12.1379 34.8069L2.08239 44.8602C1.42189 45.5206 0.897948 46.3046 0.54048 47.1674C0.183012 48.0303 -0.000976562 48.9551 -0.000976562 49.8891C-0.000976562 50.8231 0.183012 51.7479 0.54048 52.6108C0.897948 53.4736 1.42189 54.2576 2.08239 54.918L12.1379 64.9735C12.7986 65.6338 13.3228 66.4178 13.6804 67.2806C14.0381 68.1435 14.2223 69.0684 14.2224 70.0024V78.3335C14.2224 83.9915 16.47 89.4177 20.4708 93.4185C24.4716 97.4193 29.8978 99.6669 35.5557 99.6669H46.2224C47.1654 99.6669 48.0698 99.2923 48.7366 98.6255C49.4033 97.9587 49.778 97.0543 49.778 96.1113V89.0002C49.778 88.0572 49.4033 87.1528 48.7366 86.4861C48.0698 85.8193 47.1654 85.4447 46.2224 85.4447H35.5557C33.6697 85.4447 31.861 84.6955 30.5274 83.3619C29.1938 82.0283 28.4446 80.2195 28.4446 78.3335V70.0047C28.4445 67.2026 27.8924 64.4281 26.8198 61.8395C25.7472 59.2509 24.1752 56.899 22.1935 54.918L17.1668 49.8891L22.1957 44.8602C24.177 42.8791 25.7486 40.527 26.8208 37.9384C27.893 35.3499 28.4448 32.5754 28.4446 29.7735V21.4447C28.4446 19.5587 29.1938 17.7499 30.5274 16.4163C31.861 15.0828 33.6697 14.3335 35.5557 14.3335H46.2224C47.1654 14.3335 48.0698 13.9589 48.7366 13.2922C49.4033 12.6254 49.778 11.721 49.778 10.778V3.66688C49.778 2.72389 49.4033 1.81952 48.7366 1.15273C48.0698 0.48593 47.1654 0.111328 46.2224 0.111328V0.111328ZM125.918 44.8602L115.862 34.8069C114.528 33.4715 113.779 31.6612 113.778 29.7735V21.4447C113.778 15.7867 111.53 10.3605 107.53 6.35972C103.529 2.35894 98.1026 0.111328 92.4446 0.111328H81.7779C80.835 0.111328 79.9306 0.48593 79.2638 1.15273C78.597 1.81952 78.2224 2.72389 78.2224 3.66688V10.778C78.2224 11.721 78.597 12.6254 79.2638 13.2922C79.9306 13.9589 80.835 14.3335 81.7779 14.3335H92.4446C94.3306 14.3335 96.1393 15.0828 97.4729 16.4163C98.8065 17.7499 99.5557 19.5587 99.5557 21.4447V29.7713C99.5553 32.5741 100.107 35.3495 101.18 37.9389C102.252 40.5283 103.825 42.8809 105.807 44.8624L110.834 49.8891L105.807 54.918C103.825 56.899 102.253 59.2509 101.181 61.8395C100.108 64.4281 99.5559 67.2026 99.5557 70.0047V78.3335C99.5557 80.2195 98.8065 82.0283 97.4729 83.3619C96.1393 84.6955 94.3306 85.4447 92.4446 85.4447H81.7779C80.835 85.4447 79.9306 85.8193 79.2638 86.4861C78.597 87.1528 78.2224 88.0572 78.2224 89.0002V96.1113C78.2224 97.0543 78.597 97.9587 79.2638 98.6255C79.9306 99.2923 80.835 99.6669 81.7779 99.6669H92.4446C98.1026 99.6669 103.529 97.4193 107.53 93.4185C111.53 89.4177 113.778 83.9915 113.778 78.3335V70.0024C113.778 69.0684 113.962 68.1435 114.32 67.2806C114.678 66.4178 115.202 65.6338 115.862 64.9735L125.918 54.918C126.578 54.2576 127.102 53.4736 127.46 52.6108C127.817 51.7479 128.001 50.8231 128.001 49.8891C128.001 48.9551 127.817 48.0303 127.46 47.1674C127.102 46.3046 126.578 45.5206 125.918 44.8602Z" fill="url(#paint0_linear)"/>
<defs>
<linearGradient id="paint0_linear" x1="64.0002" y1="0.111328" x2="64.0002" y2="99.6669" gradientUnits="userSpaceOnUse">
<stop stop-color="#CE5AFF"/>
<stop offset="1" stop-color="#7C64BD"/>
</linearGradient>
</defs>
</svg>
