<svg width="128" height="128" viewBox="0 0 128 128" fill="none" xmlns="http://www.w3.org/2000/svg">
<path d="M120 18.2857V29.7142C120 39.7857 94.9167 48 64 48C33.0832 48 8 39.7857 8 29.7142V18.2857C8 8.21425 33.0832 0 64 0C94.9167 0 120 8.21425 120 18.2857ZM120 44V69.7142C120 79.7857 94.9167 88 64 88C33.0832 88 8 79.7857 8 69.7142V44C20.0312 52.2857 42.052 56.143 64 56.143C85.948 56.143 107.968 52.2857 120 44ZM120 84V109.714C120 119.786 94.9167 128 64 128C33.0832 128 8 119.786 8 109.714V84C20.0312 92.2857 42.052 96.143 64 96.143C85.948 96.143 107.968 92.2857 120 84Z" fill="url(#paint0_linear)"/>
<defs>
<linearGradient id="paint0_linear" x1="64" y1="0" x2="64" y2="128" gradientUnits="userSpaceOnUse">
<stop stop-color="#00BCF7"/>
<stop offset="0.729167" stop-color="#326CE5"/>
</linearGradient>
</defs>
</svg> 