<svg width="128" height="128" viewBox="0 0 128 128" fill="none" xmlns="http://www.w3.org/2000/svg">
<path d="M76.8 76.8003H51.2C47.666 76.8003 44.8 79.6663 44.8 83.2003V108.8C44.8 112.334 47.666 115.2 51.2 115.2H76.8C80.334 115.2 83.2 112.334 83.2 108.8V83.2003C83.2 79.6663 80.334 76.8003 76.8 76.8003ZM38.4 19.2003C38.4 15.6663 35.534 12.8003 32 12.8003H6.4C2.866 12.8003 0 15.6663 0 19.2003V44.8003C0 48.3343 2.866 51.2003 6.4 51.2003H25.544L40.176 76.8083C42.396 72.9963 46.48 70.4003 51.2 70.4003H51.256L38.4 47.9023V38.4003H83.2V25.6003H38.4V19.2003V19.2003ZM121.6 12.8003H96C92.466 12.8003 89.6 15.6663 89.6 19.2003V44.8003C89.6 48.3343 92.466 51.2003 96 51.2003H121.6C125.134 51.2003 128 48.3343 128 44.8003V19.2003C128 15.6663 125.134 12.8003 121.6 12.8003Z" fill="url(#paint0_linear)"/>
<defs>
<linearGradient id="paint0_linear" x1="64" y1="12.8003" x2="64" y2="115.2" gradientUnits="userSpaceOnUse">
<stop stop-color="#F7A248"/>
<stop offset="0.765625" stop-color="#EC4C47"/>
</linearGradient>
</defs>
</svg>
