<svg width="128" height="128" viewBox="0 0 128 128" fill="none" xmlns="http://www.w3.org/2000/svg">
<path d="M127.227 60.4222C115.175 36.9089 91.3177 21 63.9999 21C36.6821 21 12.8177 36.92 0.773212 60.4244H0.773212C-0.257737 62.4638 -0.257737 64.8718 0.773212 66.9111C12.8243 90.4244 36.6821 106.333 63.9999 106.333C91.3177 106.333 115.182 90.4133 127.227 66.9089V66.9089C128.257 64.8696 128.257 62.4616 127.227 60.4222V60.4222ZM63.9999 95.6667V95.6667C46.3268 95.6667 31.9999 81.3398 31.9999 63.6667C31.9999 45.9936 46.3268 31.6667 63.9999 31.6667C81.673 31.6667 95.9999 45.9936 95.9999 63.6667V63.6666C96.0085 81.3311 81.6956 95.6579 64.031 95.6666C64.0206 95.6666 64.0102 95.6666 63.9999 95.6666L63.9999 95.6667ZM63.9999 42.3333V42.3333C62.0957 42.3599 60.2039 42.6432 58.3754 43.1756V43.1756C61.8561 47.9056 60.8432 54.5616 56.1132 58.0422C52.3645 60.8007 47.2575 60.8007 43.5088 58.0422L43.5088 58.0422C40.4295 69.3868 47.1299 81.0798 58.4745 84.1589C69.8191 87.2382 81.512 80.5378 84.5911 69.1932C87.6704 57.8486 80.97 46.1556 69.6254 43.0765C67.7918 42.5788 65.8998 42.3289 63.9998 42.3333L63.9999 42.3333Z" fill="url(#paint0_linear)"/>
<defs>
<linearGradient id="paint0_linear" x1="63.9999" y1="21" x2="63.9999" y2="106.333" gradientUnits="userSpaceOnUse">
<stop stop-color="#36C5F0"/>
<stop offset="0.729167" stop-color="#55BA3C"/>
</linearGradient>
</defs>
</svg>
