<svg width="128" height="128" viewBox="0 0 128 128" fill="none" xmlns="http://www.w3.org/2000/svg">
<path d="M121.85 78.9251L111.2 72.7751C112.275 66.9751 112.275 61.0251 111.2 55.2251L121.85 49.0751C123.075 48.3751 123.625 46.9251 123.225 45.5751C120.45 36.6751 115.725 28.6251 109.55 21.9251C108.6 20.9001 107.05 20.6501 105.85 21.3501L95.2002 27.5001C90.7252 23.6501 85.5752 20.6751 80.0002 18.7251V6.45014C80.0002 5.05014 79.0252 3.82514 77.6502 3.52514C68.4752 1.47514 59.0752 1.57514 50.3502 3.52514C48.9752 3.82514 48.0002 5.05014 48.0002 6.45014V18.7501C42.4502 20.7251 37.3002 23.7001 32.8002 27.5251L22.1752 21.3751C20.9502 20.6751 19.4252 20.9001 18.4752 21.9501C12.3002 28.6251 7.57516 36.6751 4.80016 45.6001C4.37516 46.9501 4.95016 48.4001 6.17516 49.1001L16.8252 55.2501C15.7502 61.0501 15.7502 67.0001 16.8252 72.8001L6.17516 78.9501C4.95016 79.6501 4.40016 81.1001 4.80016 82.4501C7.57516 91.3501 12.3002 99.4001 18.4752 106.1C19.4252 107.125 20.9752 107.375 22.1752 106.675L32.8252 100.525C37.3002 104.375 42.4502 107.35 48.0252 109.3V121.6C48.0252 123 49.0002 124.225 50.3752 124.525C59.5502 126.575 68.9502 126.475 77.6752 124.525C79.0502 124.225 80.0252 123 80.0252 121.6V109.3C85.5752 107.325 90.7252 104.35 95.2252 100.525L105.875 106.675C107.1 107.375 108.625 107.15 109.575 106.1C115.75 99.4251 120.475 91.3751 123.25 82.4501C123.625 81.0751 123.075 79.6251 121.85 78.9251V78.9251ZM64.0002 84.0001C52.9752 84.0001 44.0002 75.0251 44.0002 64.0001C44.0002 52.9751 52.9752 44.0001 64.0002 44.0001C75.0252 44.0001 84.0002 52.9751 84.0002 64.0001C84.0002 75.0251 75.0252 84.0001 64.0002 84.0001V84.0001Z" fill="url(#paint0_linear)"/>
<defs>
<linearGradient id="paint0_linear" x1="64.0137" y1="2.0249" x2="64.0137" y2="126.025" gradientUnits="userSpaceOnUse">
<stop stop-color="#C2CCD6"/>
<stop offset="0.729167" stop-color="#979797"/>
</linearGradient>
</defs>
</svg>
