<svg width="128" height="128" viewBox="0 0 128 128" fill="none" xmlns="http://www.w3.org/2000/svg">
<path d="M4 32H108C110.21 32 112 30.21 112 28V12C112 9.79 110.21 8 108 8H4C1.79 8 0 9.79 0 12V28C0 30.21 1.79 32 4 32ZM124 52H20C17.79 52 16 53.79 16 56V72C16 74.21 17.79 76 20 76H124C126.21 76 128 74.21 128 72V56C128 53.79 126.21 52 124 52ZM108 96H4C1.79 96 0 97.79 0 100V116C0 118.21 1.79 120 4 120H108C110.21 120 112 118.21 112 116V100C112 97.79 110.21 96 108 96Z" fill="url(#paint0_linear)"/>
<defs>
<linearGradient id="paint0_linear" x1="64" y1="8" x2="64" y2="120" gradientUnits="userSpaceOnUse">
<stop stop-color="#CE5AFF"/>
<stop offset="1" stop-color="#7C64BD"/>
</linearGradient>
</defs>
</svg>
