<svg width="128" height="90" viewBox="0 0 128 90" fill="none" xmlns="http://www.w3.org/2000/svg">
<g opacity="0.4">
<path d="M19.2 38.4008C21.7316 38.4008 24.2063 37.6501 26.3113 36.2436C28.4162 34.8371 30.0569 32.838 31.0257 30.4991C31.9945 28.1602 32.2479 25.5866 31.7541 23.1036C31.2602 20.6207 30.0411 18.3399 28.251 16.5498C26.4609 14.7597 24.1801 13.5406 21.6972 13.0467C19.2142 12.5528 16.6405 12.8063 14.3017 13.7751C11.9628 14.7439 9.96367 16.3845 8.55719 18.4895C7.15071 20.5944 6.4 23.0692 6.4 25.6008C6.40318 28.9946 7.75277 32.2485 10.1525 34.6482C12.5523 37.048 15.8062 38.3976 19.2 38.4008V38.4008ZM115.2 44.8008H102.4C99.0193 44.7971 95.7753 46.135 93.38 48.5208C97.4312 50.7256 100.904 53.857 103.514 57.6595C106.124 61.4621 107.798 65.8279 108.4 70.4008H121.6C123.297 70.4008 124.925 69.7265 126.125 68.5263C127.326 67.326 128 65.6982 128 64.0008V57.6008C127.997 54.207 126.647 50.9531 124.247 48.5533C121.848 46.1536 118.594 44.804 115.2 44.8008ZM12.8 44.8008C9.4062 44.804 6.15232 46.1536 3.75254 48.5533C1.35276 50.9531 0.00317722 54.207 0 57.6008V64.0008C0 65.6982 0.674284 67.326 1.87452 68.5263C3.07475 69.7265 4.70261 70.4008 6.4 70.4008H19.58C20.1894 65.8279 21.8689 61.4632 24.4822 57.6614C27.0955 53.8596 30.5689 50.7279 34.62 48.5208C32.2247 46.135 28.9807 44.7971 25.6 44.8008H12.8ZM108.8 38.4008C111.332 38.4008 113.806 37.6501 115.911 36.2436C118.016 34.8371 119.657 32.838 120.626 30.4991C121.594 28.1602 121.848 25.5866 121.354 23.1036C120.86 20.6207 119.641 18.3399 117.851 16.5498C116.061 14.7597 113.78 13.5406 111.297 13.0467C108.814 12.5528 106.241 12.8063 103.902 13.7751C101.563 14.7439 99.5637 16.3845 98.1572 18.4895C96.7507 20.5944 96 23.0692 96 25.6008C96.0032 28.9946 97.3528 32.2485 99.7525 34.6482C102.152 37.048 105.406 38.3976 108.8 38.4008Z" fill="black"/>
<path d="M19.2 38.4008C21.7316 38.4008 24.2063 37.6501 26.3113 36.2436C28.4162 34.8371 30.0569 32.838 31.0257 30.4991C31.9945 28.1602 32.2479 25.5866 31.7541 23.1036C31.2602 20.6207 30.0411 18.3399 28.251 16.5498C26.4609 14.7597 24.1801 13.5406 21.6972 13.0467C19.2142 12.5528 16.6405 12.8063 14.3017 13.7751C11.9628 14.7439 9.96367 16.3845 8.55719 18.4895C7.15071 20.5944 6.4 23.0692 6.4 25.6008C6.40318 28.9946 7.75277 32.2485 10.1525 34.6482C12.5523 37.048 15.8062 38.3976 19.2 38.4008V38.4008ZM115.2 44.8008H102.4C99.0193 44.7971 95.7753 46.135 93.38 48.5208C97.4312 50.7256 100.904 53.857 103.514 57.6595C106.124 61.4621 107.798 65.8279 108.4 70.4008H121.6C123.297 70.4008 124.925 69.7265 126.125 68.5263C127.326 67.326 128 65.6982 128 64.0008V57.6008C127.997 54.207 126.647 50.9531 124.247 48.5533C121.848 46.1536 118.594 44.804 115.2 44.8008ZM12.8 44.8008C9.4062 44.804 6.15232 46.1536 3.75254 48.5533C1.35276 50.9531 0.00317722 54.207 0 57.6008V64.0008C0 65.6982 0.674284 67.326 1.87452 68.5263C3.07475 69.7265 4.70261 70.4008 6.4 70.4008H19.58C20.1894 65.8279 21.8689 61.4632 24.4822 57.6614C27.0955 53.8596 30.5689 50.7279 34.62 48.5208C32.2247 46.135 28.9807 44.7971 25.6 44.8008H12.8ZM108.8 38.4008C111.332 38.4008 113.806 37.6501 115.911 36.2436C118.016 34.8371 119.657 32.838 120.626 30.4991C121.594 28.1602 121.848 25.5866 121.354 23.1036C120.86 20.6207 119.641 18.3399 117.851 16.5498C116.061 14.7597 113.78 13.5406 111.297 13.0467C108.814 12.5528 106.241 12.8063 103.902 13.7751C101.563 14.7439 99.5637 16.3845 98.1572 18.4895C96.7507 20.5944 96 23.0692 96 25.6008C96.0032 28.9946 97.3528 32.2485 99.7525 34.6482C102.152 37.048 105.406 38.3976 108.8 38.4008Z" fill="url(#paint0_linear)"/>
</g>
<path d="M79.3601 51.2H77.7001C73.433 53.2857 68.7496 54.3796 64.0001 54.4C59.0801 54.4 54.4801 53.2 50.3001 51.2H48.6401C42.53 51.2016 36.6706 53.6295 32.3501 57.95C28.0296 62.2705 25.6017 68.1299 25.6001 74.24V80C25.6001 82.5461 26.6115 84.9879 28.4119 86.7882C30.2122 88.5886 32.654 89.6 35.2001 89.6H92.8001C95.3462 89.6 97.788 88.5886 99.5883 86.7882C101.389 84.9879 102.4 82.5461 102.4 80V74.24C102.399 68.1299 99.9706 62.2705 95.6501 57.95C91.3296 53.6295 85.4702 51.2016 79.3601 51.2V51.2ZM64.0001 44.8C68.4304 44.8 72.7612 43.4863 76.4449 41.0249C80.1285 38.5636 82.9996 35.0652 84.695 30.9721C86.3904 26.8791 86.834 22.3752 85.9697 18.03C85.1054 13.6848 82.972 9.69351 79.8393 6.56082C76.7066 3.42812 72.7153 1.29473 68.3701 0.43042C64.0249 -0.433889 59.5211 0.00970554 55.428 1.70511C51.3349 3.40051 47.8365 6.27158 45.3752 9.95524C42.9138 13.6389 41.6001 17.9697 41.6001 22.4C41.5985 25.3421 42.1768 28.2556 43.302 30.974C44.4271 33.6924 46.077 36.1624 48.1574 38.2427C50.2377 40.3231 52.7077 41.973 55.4261 43.0981C58.1445 44.2233 61.058 44.8016 64.0001 44.8Z" fill="black"/>
<path d="M79.3601 51.2H77.7001C73.433 53.2857 68.7496 54.3796 64.0001 54.4C59.0801 54.4 54.4801 53.2 50.3001 51.2H48.6401C42.53 51.2016 36.6706 53.6295 32.3501 57.95C28.0296 62.2705 25.6017 68.1299 25.6001 74.24V80C25.6001 82.5461 26.6115 84.9879 28.4119 86.7882C30.2122 88.5886 32.654 89.6 35.2001 89.6H92.8001C95.3462 89.6 97.788 88.5886 99.5883 86.7882C101.389 84.9879 102.4 82.5461 102.4 80V74.24C102.399 68.1299 99.9706 62.2705 95.6501 57.95C91.3296 53.6295 85.4702 51.2016 79.3601 51.2V51.2ZM64.0001 44.8C68.4304 44.8 72.7612 43.4863 76.4449 41.0249C80.1285 38.5636 82.9996 35.0652 84.695 30.9721C86.3904 26.8791 86.834 22.3752 85.9697 18.03C85.1054 13.6848 82.972 9.69351 79.8393 6.56082C76.7066 3.42812 72.7153 1.29473 68.3701 0.43042C64.0249 -0.433889 59.5211 0.00970554 55.428 1.70511C51.3349 3.40051 47.8365 6.27158 45.3752 9.95524C42.9138 13.6389 41.6001 17.9697 41.6001 22.4C41.5985 25.3421 42.1768 28.2556 43.302 30.974C44.4271 33.6924 46.077 36.1624 48.1574 38.2427C50.2377 40.3231 52.7077 41.973 55.4261 43.0981C58.1445 44.2233 61.058 44.8016 64.0001 44.8Z" fill="url(#paint1_linear)"/>
<defs>
<linearGradient id="paint0_linear" x1="64.0002" y1="12.8008" x2="64.0002" y2="70.4008" gradientUnits="userSpaceOnUse">
<stop stop-color="#36C5F0"/>
<stop offset="0.729167" stop-color="#55BA3C"/>
</linearGradient>
<linearGradient id="paint1_linear" x1="64.0002" y1="0" x2="64.0002" y2="89.6" gradientUnits="userSpaceOnUse">
<stop stop-color="#36C5F0"/>
<stop offset="0.729167" stop-color="#55BA3C"/>
</linearGradient>
</defs>
</svg>
